<mxfile host="app.diagrams.net" modified="2022-10-19T03:10:38.188Z" agent="5.0 (Windows NT 10.0; Win64; x64) AppleWebKit/537.36 (KHTML, like Gecko) Chrome/106.0.0.0 Safari/537.36 Edg/106.0.1370.42" etag="1DbyC5dXU980SOMeowGb" version="20.4.1" type="github">
  <diagram id="Y_PxdAWy2J6HTI8FoUpb" name="第 1 页">
    <mxGraphModel dx="2154" dy="786" grid="1" gridSize="10" guides="1" tooltips="1" connect="1" arrows="1" fold="1" page="1" pageScale="1" pageWidth="827" pageHeight="1169" math="0" shadow="0">
      <root>
        <mxCell id="0" />
        <mxCell id="1" parent="0" />
        <mxCell id="r4PaBLSmgSLm16enNlTo-11" value="" style="rounded=0;whiteSpace=wrap;html=1;strokeColor=#000000;strokeWidth=1;" parent="1" vertex="1">
          <mxGeometry x="-20" y="30" width="290" height="760" as="geometry" />
        </mxCell>
        <mxCell id="r4PaBLSmgSLm16enNlTo-21" style="edgeStyle=orthogonalEdgeStyle;rounded=0;orthogonalLoop=1;jettySize=auto;html=1;fontSize=21;" parent="1" source="r4PaBLSmgSLm16enNlTo-1" target="r4PaBLSmgSLm16enNlTo-2" edge="1">
          <mxGeometry relative="1" as="geometry" />
        </mxCell>
        <mxCell id="r4PaBLSmgSLm16enNlTo-1" value="" style="shape=waypoint;sketch=0;fillStyle=solid;size=6;pointerEvents=1;points=[];fillColor=none;resizable=0;rotatable=0;perimeter=centerPerimeter;snapToPoint=1;strokeWidth=7;" parent="1" vertex="1">
          <mxGeometry x="100" y="80" width="40" height="40" as="geometry" />
        </mxCell>
        <mxCell id="r4PaBLSmgSLm16enNlTo-28" style="edgeStyle=orthogonalEdgeStyle;rounded=0;orthogonalLoop=1;jettySize=auto;html=1;fontSize=21;" parent="1" source="r4PaBLSmgSLm16enNlTo-2" target="r4PaBLSmgSLm16enNlTo-26" edge="1">
          <mxGeometry relative="1" as="geometry">
            <Array as="points">
              <mxPoint x="50" y="175" />
              <mxPoint x="50" y="220" />
              <mxPoint x="40" y="220" />
            </Array>
          </mxGeometry>
        </mxCell>
        <mxCell id="r4PaBLSmgSLm16enNlTo-2" value="输入密码" style="strokeWidth=1;html=1;shape=mxgraph.flowchart.decision;whiteSpace=wrap;" parent="1" vertex="1">
          <mxGeometry x="60" y="150" width="120" height="50" as="geometry" />
        </mxCell>
        <mxCell id="r4PaBLSmgSLm16enNlTo-41" value="&lt;font style=&quot;font-size: 11px;&quot;&gt;应用驱动&lt;/font&gt;" style="edgeStyle=orthogonalEdgeStyle;rounded=0;orthogonalLoop=1;jettySize=auto;html=1;fontSize=21;startArrow=none;startFill=0;endArrow=classic;endFill=1;" parent="1" source="r4PaBLSmgSLm16enNlTo-5" target="r4PaBLSmgSLm16enNlTo-39" edge="1">
          <mxGeometry relative="1" as="geometry" />
        </mxCell>
        <mxCell id="r4PaBLSmgSLm16enNlTo-43" style="edgeStyle=orthogonalEdgeStyle;rounded=0;orthogonalLoop=1;jettySize=auto;html=1;entryX=0;entryY=0.5;entryDx=0;entryDy=0;fontSize=21;startArrow=none;startFill=0;endArrow=classic;endFill=1;exitX=0;exitY=0.5;exitDx=0;exitDy=0;exitPerimeter=0;" parent="1" source="r4PaBLSmgSLm16enNlTo-5" target="r4PaBLSmgSLm16enNlTo-42" edge="1">
          <mxGeometry relative="1" as="geometry">
            <Array as="points">
              <mxPoint x="40" y="285" />
              <mxPoint x="40" y="410" />
            </Array>
          </mxGeometry>
        </mxCell>
        <mxCell id="1x74kbKt0oHOlu1Jy6Se-9" value="规则导入" style="edgeLabel;html=1;align=center;verticalAlign=middle;resizable=0;points=[];" vertex="1" connectable="0" parent="r4PaBLSmgSLm16enNlTo-43">
          <mxGeometry x="0.1667" y="2" relative="1" as="geometry">
            <mxPoint as="offset" />
          </mxGeometry>
        </mxCell>
        <mxCell id="r4PaBLSmgSLm16enNlTo-5" value="指定应用场景" style="strokeWidth=1;html=1;shape=mxgraph.flowchart.decision;whiteSpace=wrap;" parent="1" vertex="1">
          <mxGeometry x="65" y="260" width="120" height="50" as="geometry" />
        </mxCell>
        <mxCell id="r4PaBLSmgSLm16enNlTo-10" value="" style="ellipse;html=1;shape=endState;fillColor=#000000;strokeColor=#000000;strokeWidth=3;" parent="1" vertex="1">
          <mxGeometry x="115" y="700" width="30" height="30" as="geometry" />
        </mxCell>
        <mxCell id="r4PaBLSmgSLm16enNlTo-12" value="" style="rounded=0;whiteSpace=wrap;html=1;strokeColor=#000000;strokeWidth=1;" parent="1" vertex="1">
          <mxGeometry x="269" y="30" width="290" height="760" as="geometry" />
        </mxCell>
        <mxCell id="r4PaBLSmgSLm16enNlTo-13" value="" style="rounded=0;whiteSpace=wrap;html=1;strokeColor=#000000;strokeWidth=1;" parent="1" vertex="1">
          <mxGeometry x="559" y="30" width="281" height="760" as="geometry" />
        </mxCell>
        <mxCell id="r4PaBLSmgSLm16enNlTo-14" value="" style="endArrow=none;html=1;rounded=0;exitX=0.003;exitY=0.044;exitDx=0;exitDy=0;exitPerimeter=0;entryX=1.004;entryY=0.057;entryDx=0;entryDy=0;entryPerimeter=0;" parent="1" edge="1" target="r4PaBLSmgSLm16enNlTo-13">
          <mxGeometry width="50" height="50" relative="1" as="geometry">
            <mxPoint x="-19.13000000000011" y="71.84000000000003" as="sourcePoint" />
            <mxPoint x="830" y="72" as="targetPoint" />
          </mxGeometry>
        </mxCell>
        <mxCell id="r4PaBLSmgSLm16enNlTo-15" value="用户" style="text;html=1;strokeColor=none;fillColor=none;align=center;verticalAlign=middle;whiteSpace=wrap;rounded=0;strokeWidth=3;fontSize=21;fontStyle=1" parent="1" vertex="1">
          <mxGeometry x="100" y="40" width="60" height="30" as="geometry" />
        </mxCell>
        <mxCell id="r4PaBLSmgSLm16enNlTo-16" value="数据库" style="text;html=1;strokeColor=none;fillColor=none;align=center;verticalAlign=middle;whiteSpace=wrap;rounded=0;strokeWidth=3;fontSize=21;fontStyle=1" parent="1" vertex="1">
          <mxGeometry x="281" y="20" width="266" height="70" as="geometry" />
        </mxCell>
        <mxCell id="r4PaBLSmgSLm16enNlTo-17" value="系统" style="text;html=1;strokeColor=none;fillColor=none;align=center;verticalAlign=middle;whiteSpace=wrap;rounded=0;strokeWidth=3;fontSize=21;fontStyle=1" parent="1" vertex="1">
          <mxGeometry x="674" y="40" width="60" height="30" as="geometry" />
        </mxCell>
        <mxCell id="r4PaBLSmgSLm16enNlTo-19" value="账号/密码是否存在且正确" style="rounded=0;whiteSpace=wrap;html=1;strokeColor=#000000;strokeWidth=1;fontSize=17;" parent="1" vertex="1">
          <mxGeometry x="357" y="190" width="120" height="60" as="geometry" />
        </mxCell>
        <mxCell id="r4PaBLSmgSLm16enNlTo-35" style="edgeStyle=orthogonalEdgeStyle;rounded=0;orthogonalLoop=1;jettySize=auto;html=1;entryX=1;entryY=0.5;entryDx=0;entryDy=0;entryPerimeter=0;fontSize=21;endArrow=none;endFill=0;exitX=0.5;exitY=0;exitDx=0;exitDy=0;" parent="1" source="r4PaBLSmgSLm16enNlTo-23" target="r4PaBLSmgSLm16enNlTo-2" edge="1">
          <mxGeometry relative="1" as="geometry">
            <Array as="points">
              <mxPoint x="730" y="268" />
              <mxPoint x="730" y="175" />
            </Array>
          </mxGeometry>
        </mxCell>
        <mxCell id="r4PaBLSmgSLm16enNlTo-23" value="进入系统" style="rounded=0;whiteSpace=wrap;html=1;strokeColor=#000000;strokeWidth=1;fontSize=17;" parent="1" vertex="1">
          <mxGeometry x="690" y="267.5" width="80" height="35" as="geometry" />
        </mxCell>
        <mxCell id="r4PaBLSmgSLm16enNlTo-30" style="edgeStyle=orthogonalEdgeStyle;rounded=0;orthogonalLoop=1;jettySize=auto;html=1;entryX=0;entryY=0.5;entryDx=0;entryDy=0;fontSize=21;" parent="1" source="r4PaBLSmgSLm16enNlTo-25" target="r4PaBLSmgSLm16enNlTo-19" edge="1">
          <mxGeometry relative="1" as="geometry" />
        </mxCell>
        <mxCell id="r4PaBLSmgSLm16enNlTo-38" style="edgeStyle=orthogonalEdgeStyle;rounded=0;orthogonalLoop=1;jettySize=auto;html=1;fontSize=21;endArrow=none;endFill=0;exitX=0.499;exitY=0.018;exitDx=0;exitDy=0;exitPerimeter=0;startArrow=classic;startFill=1;" parent="1" source="r4PaBLSmgSLm16enNlTo-25" edge="1">
          <mxGeometry relative="1" as="geometry">
            <mxPoint x="210" y="175" as="targetPoint" />
            <mxPoint x="210" y="225" as="sourcePoint" />
          </mxGeometry>
        </mxCell>
        <mxCell id="r4PaBLSmgSLm16enNlTo-25" value="登录" style="rounded=0;whiteSpace=wrap;html=1;strokeColor=#000000;strokeWidth=1;fontSize=17;" parent="1" vertex="1">
          <mxGeometry x="170" y="202.5" width="80" height="35" as="geometry" />
        </mxCell>
        <mxCell id="r4PaBLSmgSLm16enNlTo-26" value="重新输入" style="rounded=0;whiteSpace=wrap;html=1;strokeColor=#000000;strokeWidth=1;fontSize=17;" parent="1" vertex="1">
          <mxGeometry x="10" y="202.5" width="80" height="35" as="geometry" />
        </mxCell>
        <mxCell id="r4PaBLSmgSLm16enNlTo-32" style="edgeStyle=orthogonalEdgeStyle;rounded=0;orthogonalLoop=1;jettySize=auto;html=1;entryX=0;entryY=0.5;entryDx=0;entryDy=0;fontSize=21;" parent="1" source="r4PaBLSmgSLm16enNlTo-31" target="r4PaBLSmgSLm16enNlTo-23" edge="1">
          <mxGeometry relative="1" as="geometry" />
        </mxCell>
        <mxCell id="r4PaBLSmgSLm16enNlTo-33" style="edgeStyle=orthogonalEdgeStyle;rounded=0;orthogonalLoop=1;jettySize=auto;html=1;fontSize=21;" parent="1" source="r4PaBLSmgSLm16enNlTo-31" target="r4PaBLSmgSLm16enNlTo-5" edge="1">
          <mxGeometry relative="1" as="geometry" />
        </mxCell>
        <mxCell id="r4PaBLSmgSLm16enNlTo-31" value="规则体系" style="strokeWidth=1;html=1;shape=mxgraph.flowchart.decision;whiteSpace=wrap;" parent="1" vertex="1">
          <mxGeometry x="354" y="260" width="120" height="50" as="geometry" />
        </mxCell>
        <mxCell id="r4PaBLSmgSLm16enNlTo-49" style="edgeStyle=orthogonalEdgeStyle;rounded=0;orthogonalLoop=1;jettySize=auto;html=1;entryX=0;entryY=0.5;entryDx=0;entryDy=0;fontSize=21;startArrow=none;startFill=0;endArrow=classic;endFill=1;" parent="1" source="r4PaBLSmgSLm16enNlTo-39" target="r4PaBLSmgSLm16enNlTo-48" edge="1">
          <mxGeometry relative="1" as="geometry" />
        </mxCell>
        <mxCell id="r4PaBLSmgSLm16enNlTo-39" value="具体应用" style="rounded=0;whiteSpace=wrap;html=1;strokeColor=#000000;strokeWidth=1;fontSize=17;" parent="1" vertex="1">
          <mxGeometry x="80" y="330" width="90" height="35" as="geometry" />
        </mxCell>
        <mxCell id="r4PaBLSmgSLm16enNlTo-42" value="查看规则" style="rounded=0;whiteSpace=wrap;html=1;strokeColor=#000000;strokeWidth=1;fontSize=17;" parent="1" vertex="1">
          <mxGeometry x="70" y="392.5" width="120" height="35" as="geometry" />
        </mxCell>
        <mxCell id="r4PaBLSmgSLm16enNlTo-46" style="edgeStyle=orthogonalEdgeStyle;rounded=0;orthogonalLoop=1;jettySize=auto;html=1;entryX=0.5;entryY=0;entryDx=0;entryDy=0;fontSize=21;startArrow=none;startFill=0;endArrow=classic;endFill=1;" parent="1" source="r4PaBLSmgSLm16enNlTo-44" target="r4PaBLSmgSLm16enNlTo-45" edge="1">
          <mxGeometry relative="1" as="geometry" />
        </mxCell>
        <mxCell id="1x74kbKt0oHOlu1Jy6Se-10" style="edgeStyle=orthogonalEdgeStyle;rounded=0;orthogonalLoop=1;jettySize=auto;html=1;exitX=0;exitY=0.5;exitDx=0;exitDy=0;entryX=0.5;entryY=0;entryDx=0;entryDy=0;entryPerimeter=0;fontSize=11;" edge="1" parent="1" source="r4PaBLSmgSLm16enNlTo-44" target="r4PaBLSmgSLm16enNlTo-5">
          <mxGeometry relative="1" as="geometry">
            <Array as="points">
              <mxPoint y="558" />
              <mxPoint y="250" />
              <mxPoint x="125" y="250" />
            </Array>
          </mxGeometry>
        </mxCell>
        <mxCell id="r4PaBLSmgSLm16enNlTo-44" value="规则可视化" style="rounded=0;whiteSpace=wrap;html=1;strokeColor=#000000;strokeWidth=1;fontSize=17;" parent="1" vertex="1">
          <mxGeometry x="85" y="540" width="90" height="35" as="geometry" />
        </mxCell>
        <mxCell id="r4PaBLSmgSLm16enNlTo-47" style="edgeStyle=orthogonalEdgeStyle;rounded=0;orthogonalLoop=1;jettySize=auto;html=1;entryX=0.5;entryY=0;entryDx=0;entryDy=0;fontSize=21;startArrow=none;startFill=0;endArrow=classic;endFill=1;" parent="1" source="r4PaBLSmgSLm16enNlTo-45" target="r4PaBLSmgSLm16enNlTo-10" edge="1">
          <mxGeometry relative="1" as="geometry" />
        </mxCell>
        <mxCell id="r4PaBLSmgSLm16enNlTo-45" value="退出系统" style="rounded=0;whiteSpace=wrap;html=1;strokeColor=#000000;strokeWidth=1;fontSize=17;" parent="1" vertex="1">
          <mxGeometry x="85" y="626" width="90" height="35" as="geometry" />
        </mxCell>
        <mxCell id="r4PaBLSmgSLm16enNlTo-56" style="edgeStyle=orthogonalEdgeStyle;rounded=0;orthogonalLoop=1;jettySize=auto;html=1;entryX=0;entryY=0.5;entryDx=0;entryDy=0;entryPerimeter=0;fontSize=21;startArrow=none;startFill=0;endArrow=classic;endFill=1;" parent="1" source="r4PaBLSmgSLm16enNlTo-48" target="r4PaBLSmgSLm16enNlTo-55" edge="1">
          <mxGeometry relative="1" as="geometry" />
        </mxCell>
        <mxCell id="r4PaBLSmgSLm16enNlTo-48" value="指定规则体系" style="rounded=0;whiteSpace=wrap;html=1;strokeColor=#000000;strokeWidth=1;fontSize=17;" parent="1" vertex="1">
          <mxGeometry x="332" y="330" width="176" height="35" as="geometry" />
        </mxCell>
        <mxCell id="1x74kbKt0oHOlu1Jy6Se-7" value="" style="edgeStyle=orthogonalEdgeStyle;rounded=0;orthogonalLoop=1;jettySize=auto;html=1;" edge="1" parent="1" source="r4PaBLSmgSLm16enNlTo-51" target="r4PaBLSmgSLm16enNlTo-52">
          <mxGeometry relative="1" as="geometry" />
        </mxCell>
        <mxCell id="r4PaBLSmgSLm16enNlTo-51" value="规则保存至数据库" style="rounded=0;whiteSpace=wrap;html=1;strokeColor=#000000;strokeWidth=1;fontSize=17;" parent="1" vertex="1">
          <mxGeometry x="336" y="466" width="156" height="35" as="geometry" />
        </mxCell>
        <mxCell id="1x74kbKt0oHOlu1Jy6Se-8" value="" style="edgeStyle=orthogonalEdgeStyle;rounded=0;orthogonalLoop=1;jettySize=auto;html=1;entryX=1;entryY=0.5;entryDx=0;entryDy=0;" edge="1" parent="1" source="r4PaBLSmgSLm16enNlTo-52" target="r4PaBLSmgSLm16enNlTo-44">
          <mxGeometry relative="1" as="geometry" />
        </mxCell>
        <mxCell id="r4PaBLSmgSLm16enNlTo-52" value="调取规则信息" style="rounded=0;whiteSpace=wrap;html=1;strokeColor=#000000;strokeWidth=1;fontSize=17;" parent="1" vertex="1">
          <mxGeometry x="357" y="540" width="114" height="35" as="geometry" />
        </mxCell>
        <mxCell id="r4PaBLSmgSLm16enNlTo-60" style="edgeStyle=orthogonalEdgeStyle;rounded=0;orthogonalLoop=1;jettySize=auto;html=1;entryX=0.5;entryY=0;entryDx=0;entryDy=0;fontSize=21;startArrow=none;startFill=0;endArrow=classic;endFill=1;" parent="1" source="r4PaBLSmgSLm16enNlTo-55" edge="1">
          <mxGeometry relative="1" as="geometry">
            <mxPoint x="720" y="501" as="targetPoint" />
          </mxGeometry>
        </mxCell>
        <mxCell id="r4PaBLSmgSLm16enNlTo-61" style="edgeStyle=orthogonalEdgeStyle;rounded=0;orthogonalLoop=1;jettySize=auto;html=1;fontSize=21;startArrow=none;startFill=0;endArrow=classic;endFill=1;entryX=0.5;entryY=0;entryDx=0;entryDy=0;" parent="1" source="r4PaBLSmgSLm16enNlTo-55" target="r4PaBLSmgSLm16enNlTo-57" edge="1">
          <mxGeometry relative="1" as="geometry">
            <Array as="points">
              <mxPoint x="720" y="440" />
              <mxPoint x="630" y="440" />
            </Array>
            <mxPoint x="630" y="450" as="targetPoint" />
          </mxGeometry>
        </mxCell>
        <mxCell id="r4PaBLSmgSLm16enNlTo-64" style="edgeStyle=orthogonalEdgeStyle;rounded=0;orthogonalLoop=1;jettySize=auto;html=1;entryX=0.5;entryY=0;entryDx=0;entryDy=0;fontSize=21;startArrow=none;startFill=0;endArrow=classic;endFill=1;" parent="1" source="r4PaBLSmgSLm16enNlTo-55" target="r4PaBLSmgSLm16enNlTo-59" edge="1">
          <mxGeometry relative="1" as="geometry">
            <Array as="points">
              <mxPoint x="720" y="440" />
              <mxPoint x="795" y="440" />
            </Array>
          </mxGeometry>
        </mxCell>
        <mxCell id="r4PaBLSmgSLm16enNlTo-55" value="规则挖掘" style="strokeWidth=1;html=1;shape=mxgraph.flowchart.decision;whiteSpace=wrap;" parent="1" vertex="1">
          <mxGeometry x="660" y="322.5" width="120" height="50" as="geometry" />
        </mxCell>
        <mxCell id="r4PaBLSmgSLm16enNlTo-69" style="edgeStyle=orthogonalEdgeStyle;rounded=0;orthogonalLoop=1;jettySize=auto;html=1;fontSize=21;startArrow=none;startFill=0;endArrow=classic;endFill=1;exitX=0.5;exitY=1;exitDx=0;exitDy=0;" parent="1" source="r4PaBLSmgSLm16enNlTo-57" edge="1">
          <mxGeometry relative="1" as="geometry">
            <mxPoint x="720" y="700" as="targetPoint" />
            <Array as="points">
              <mxPoint x="630" y="680" />
              <mxPoint x="720" y="680" />
            </Array>
          </mxGeometry>
        </mxCell>
        <mxCell id="r4PaBLSmgSLm16enNlTo-57" value="规则挖掘模块" style="rounded=0;whiteSpace=wrap;html=1;strokeColor=#000000;strokeWidth=1;fontSize=17;" parent="1" vertex="1">
          <mxGeometry x="600" y="460" width="60" height="175" as="geometry" />
        </mxCell>
        <mxCell id="r4PaBLSmgSLm16enNlTo-67" style="edgeStyle=orthogonalEdgeStyle;rounded=0;orthogonalLoop=1;jettySize=auto;html=1;fontSize=21;startArrow=none;startFill=0;endArrow=classic;endFill=1;exitX=0.5;exitY=1;exitDx=0;exitDy=0;" parent="1" source="1x74kbKt0oHOlu1Jy6Se-5" target="r4PaBLSmgSLm16enNlTo-65" edge="1">
          <mxGeometry relative="1" as="geometry">
            <mxPoint x="720" y="661" as="sourcePoint" />
          </mxGeometry>
        </mxCell>
        <mxCell id="r4PaBLSmgSLm16enNlTo-70" style="edgeStyle=orthogonalEdgeStyle;rounded=0;orthogonalLoop=1;jettySize=auto;html=1;fontSize=21;startArrow=none;startFill=0;endArrow=classic;endFill=1;" parent="1" source="r4PaBLSmgSLm16enNlTo-59" edge="1">
          <mxGeometry relative="1" as="geometry">
            <mxPoint x="720" y="700" as="targetPoint" />
            <Array as="points">
              <mxPoint x="795" y="680" />
              <mxPoint x="720" y="680" />
            </Array>
          </mxGeometry>
        </mxCell>
        <mxCell id="r4PaBLSmgSLm16enNlTo-59" value="规则优化" style="rounded=0;whiteSpace=wrap;html=1;strokeColor=#000000;strokeWidth=1;fontSize=17;" parent="1" vertex="1">
          <mxGeometry x="770" y="460" width="50" height="175" as="geometry" />
        </mxCell>
        <mxCell id="r4PaBLSmgSLm16enNlTo-63" style="edgeStyle=orthogonalEdgeStyle;rounded=0;orthogonalLoop=1;jettySize=auto;html=1;exitX=0.5;exitY=1;exitDx=0;exitDy=0;fontSize=21;startArrow=none;startFill=0;endArrow=classic;endFill=1;" parent="1" source="r4PaBLSmgSLm16enNlTo-57" target="r4PaBLSmgSLm16enNlTo-57" edge="1">
          <mxGeometry relative="1" as="geometry" />
        </mxCell>
        <mxCell id="r4PaBLSmgSLm16enNlTo-66" style="edgeStyle=orthogonalEdgeStyle;rounded=0;orthogonalLoop=1;jettySize=auto;html=1;entryX=1;entryY=0.5;entryDx=0;entryDy=0;fontSize=21;startArrow=none;startFill=0;endArrow=classic;endFill=1;" parent="1" source="r4PaBLSmgSLm16enNlTo-65" target="r4PaBLSmgSLm16enNlTo-51" edge="1">
          <mxGeometry relative="1" as="geometry" />
        </mxCell>
        <mxCell id="r4PaBLSmgSLm16enNlTo-65" value="规则生成" style="rounded=0;whiteSpace=wrap;html=1;strokeColor=#000000;strokeWidth=1;fontSize=17;" parent="1" vertex="1">
          <mxGeometry x="675" y="700" width="90" height="35" as="geometry" />
        </mxCell>
        <mxCell id="1x74kbKt0oHOlu1Jy6Se-5" value="规则增量计算" style="rounded=0;whiteSpace=wrap;html=1;strokeColor=#000000;strokeWidth=1;fontSize=17;" vertex="1" parent="1">
          <mxGeometry x="690" y="460" width="60" height="175" as="geometry" />
        </mxCell>
        <mxCell id="1x74kbKt0oHOlu1Jy6Se-6" value="" style="endArrow=classic;html=1;rounded=0;entryX=0;entryY=0.5;entryDx=0;entryDy=0;" edge="1" parent="1" target="r4PaBLSmgSLm16enNlTo-51">
          <mxGeometry width="50" height="50" relative="1" as="geometry">
            <mxPoint x="130" y="430" as="sourcePoint" />
            <mxPoint x="380" y="290" as="targetPoint" />
            <Array as="points">
              <mxPoint x="130" y="484" />
            </Array>
          </mxGeometry>
        </mxCell>
      </root>
    </mxGraphModel>
  </diagram>
</mxfile>
